<?xml version="1.0" encoding="UTF-8" standalone="no"?>
<!-- Created with Inkscape (http://www.inkscape.org/) -->

<svg
   xmlns:osb="http://www.openswatchbook.org/uri/2009/osb"
   xmlns:dc="http://purl.org/dc/elements/1.1/"
   xmlns:cc="http://creativecommons.org/ns#"
   xmlns:rdf="http://www.w3.org/1999/02/22-rdf-syntax-ns#"
   xmlns:svg="http://www.w3.org/2000/svg"
   xmlns="http://www.w3.org/2000/svg"
   xmlns:xlink="http://www.w3.org/1999/xlink"
   xmlns:sodipodi="http://sodipodi.sourceforge.net/DTD/sodipodi-0.dtd"
   xmlns:inkscape="http://www.inkscape.org/namespaces/inkscape"
   width="800.00195"
   height="800.00098"
   id="svg2"
   version="1.1"
   inkscape:version="0.48.4 r9939"
   sodipodi:docname="key.svg">
  <defs
     id="defs4">
    <linearGradient
       id="linearGradient5335"
       osb:paint="solid">
      <stop
         style="stop-color:#000000;stop-opacity:1;"
         offset="0"
         id="stop5337" />
    </linearGradient>
    <linearGradient
       inkscape:collect="always"
       id="linearGradient3873">
      <stop
         style="stop-color:#000000;stop-opacity:1;"
         offset="0"
         id="stop3875" />
      <stop
         style="stop-color:#000000;stop-opacity:0;"
         offset="1"
         id="stop3877" />
    </linearGradient>
    <linearGradient
       inkscape:collect="always"
       xlink:href="#linearGradient3873"
       id="linearGradient3879"
       x1="302.64991"
       y1="508.94944"
       x2="619.54911"
       y2="508.94944"
       gradientUnits="userSpaceOnUse" />
    <linearGradient
       inkscape:collect="always"
       xlink:href="#linearGradient3873"
       id="linearGradient3881"
       gradientUnits="userSpaceOnUse"
       x1="302.64991"
       y1="508.94944"
       x2="619.54911"
       y2="508.94944" />
    <linearGradient
       inkscape:collect="always"
       xlink:href="#linearGradient3873"
       id="linearGradient3883"
       gradientUnits="userSpaceOnUse"
       x1="302.64991"
       y1="508.94944"
       x2="619.54911"
       y2="508.94944" />
    <linearGradient
       inkscape:collect="always"
       xlink:href="#linearGradient3873"
       id="linearGradient3889"
       gradientUnits="userSpaceOnUse"
       x1="302.64991"
       y1="508.94944"
       x2="619.54911"
       y2="508.94944"
       gradientTransform="matrix(-1,0,0,1,888.41155,-18.745789)" />
  </defs>
  <sodipodi:namedview
     id="base"
     pagecolor="#ffffff"
     bordercolor="#666666"
     borderopacity="1.0"
     inkscape:pageopacity="0.0"
     inkscape:pageshadow="2"
     inkscape:zoom="0.9899495"
     inkscape:cx="253.11045"
     inkscape:cy="385.08223"
     inkscape:document-units="px"
     inkscape:current-layer="layer1"
     showgrid="false"
     showguides="true"
     inkscape:guide-bbox="true"
     inkscape:snap-object-midpoints="true"
     inkscape:snap-center="true"
     inkscape:snap-global="true"
     inkscape:window-width="1920"
     inkscape:window-height="1080"
     inkscape:window-x="1366"
     inkscape:window-y="0"
     inkscape:window-maximized="0"
     fit-margin-top="0"
     fit-margin-left="0"
     fit-margin-right="0"
     fit-margin-bottom="0" />
  <metadata
     id="metadata7">
    <rdf:RDF>
      <cc:Work
         rdf:about="">
        <dc:format>image/svg+xml</dc:format>
        <dc:type
           rdf:resource="http://purl.org/dc/dcmitype/StillImage" />
        <dc:title />
      </cc:Work>
    </rdf:RDF>
  </metadata>
  <g
     inkscape:label="Layer 1"
     inkscape:groupmode="layer"
     id="layer1"
     transform="translate(-27.311527,-90.217777)">
    <path
       style="fill:url(#linearGradient3889);fill-opacity:1;stroke:none"
       d="m 425.99687,834.37836 11.09319,-9.26338 0,-326.62003 0,-9.14902 18.29804,0 0,9.14902 0,311.40978 5.88968,-4.9176 0,-326.79157 a 9.1499355,9.1499355 0 1 1 18.29804,0 l 0,311.52415 9.14902,-7.60513 0,-295.51336 28.70505,2.00135 -20.18503,-47.63208 c 50.88728,-25.60954 85.77207,-78.31777 85.77207,-139.17948 0,-86.00356 -69.70134,-155.76207 -155.70489,-155.76207 -86.00355,0 -155.70489,69.75851 -155.70489,155.76207 0,60.86171 34.88479,113.56994 85.77207,139.17948 l -20.18503,47.63208 31.90721,-2.23007 -7.77667,17.32595 14.58125,13.09454 9.60648,-22.58664 16.98286,0 0,46.43127 9.14902,8.17694 -36.31017,33.50829 28.47633,33.50828 -28.47633,33.50829 28.47633,33.50829 -28.47633,33.50829 28.47633,33.50828 -28.47633,33.56547 50.6627,50.94861 z m 1.31517,-550.37076 c -29.89885,0 -54.15076,-24.19473 -54.15076,-54.09358 0,-29.89885 24.25191,-54.15077 54.15076,-54.15077 29.89885,0 54.15076,24.25192 54.15076,54.15077 0,29.89885 -24.25191,54.09358 -54.15076,54.09358 z"
       id="path3007"
       inkscape:connector-curvature="0" />
    <path
       id="path3799"
       d="m 425.99687,834.37836 62.72797,-52.26378 0,-295.51336 28.70505,2.00135 -20.18503,-47.63208 c 50.88728,-25.60954 85.77207,-78.31777 85.77207,-139.17948 0,-86.00356 -69.70134,-155.76207 -155.70489,-155.76207 -86.00355,0 -155.70489,69.75851 -155.70489,155.76207 0,60.86171 34.88479,113.56994 85.77207,139.17948 l -20.18503,47.63208 31.90721,-2.23007 -7.77667,17.32595 50.31961,45.11611 -36.31017,33.50829 28.47633,33.50828 -28.47633,33.50829 28.47633,33.50829 -28.47633,33.50829 28.47633,33.50828 -28.47633,33.56547 50.6627,50.94861 z m 1.31517,-550.37076 c -29.89885,0 -54.15076,-24.19473 -54.15076,-54.09358 0,-29.89885 24.25191,-54.15077 54.15076,-54.15077 29.89885,0 54.15076,24.25192 54.15076,54.15077 0,29.89885 -24.25191,54.09358 -54.15076,54.09358 z"
       style="fill-opacity:1;stroke:#000000;stroke-width:5.48941230999999963;stroke-linecap:round;stroke-linejoin:round;stroke-miterlimit:4;stroke-opacity:1;stroke-dasharray:none;stroke-dashoffset:0;fill-rule:nonzero;fill:#000000"
       inkscape:connector-curvature="0" />
  </g>
</svg>
